<?xml version="1.0" encoding="UTF-8" standalone="no"?>
<!-- Created with Inkscape (http://www.inkscape.org/) -->

<svg
   width="118.95128mm"
   height="116.40936mm"
   viewBox="0 0 118.95128 116.40936"
   version="1.1"
   id="svg5"
   inkscape:version="1.2.1 (9c6d41e410, 2022-07-14)"
   sodipodi:docname="cowofi.svg"
   xml:space="preserve"
   xmlns:inkscape="http://www.inkscape.org/namespaces/inkscape"
   xmlns:sodipodi="http://sodipodi.sourceforge.net/DTD/sodipodi-0.dtd"
   xmlns="http://www.w3.org/2000/svg"
   xmlns:svg="http://www.w3.org/2000/svg"><sodipodi:namedview
     id="namedview7"
     pagecolor="#ffffff"
     bordercolor="#000000"
     borderopacity="0.25"
     inkscape:showpageshadow="2"
     inkscape:pageopacity="0.0"
     inkscape:pagecheckerboard="0"
     inkscape:deskcolor="#d1d1d1"
     inkscape:document-units="mm"
     showgrid="false"
     inkscape:zoom="1.1893044"
     inkscape:cx="187.50456"
     inkscape:cy="227.44387"
     inkscape:window-width="1634"
     inkscape:window-height="986"
     inkscape:window-x="46"
     inkscape:window-y="27"
     inkscape:window-maximized="1"
     inkscape:current-layer="layer1"
     showguides="true"><sodipodi:guide
       position="55.564283,-2.1711166"
       orientation="0,-1"
       id="guide1588"
       inkscape:locked="false" /><sodipodi:guide
       position="62.481202,73.879743"
       orientation="1,0"
       id="guide1590"
       inkscape:locked="false" /></sodipodi:namedview><defs
     id="defs2" /><g
     inkscape:label="Layer 1"
     inkscape:groupmode="layer"
     id="layer1"
     transform="translate(-45.732647,-27.292961)"><path
       style="fill:#3bcc7e;fill-opacity:1;stroke-width:0.245138"
       d="m 104.48538,143.36773 c -0.87637,-0.17586 -2.42074,-0.61902 -3.43193,-0.98489 -1.0112,-0.36584 -2.886492,-0.81845 -4.167342,-1.00576 -1.28084,-0.18731 -3.20887,-0.56837 -4.28451,-0.84679 -1.07563,-0.27842 -2.774086,-0.84689 -3.774338,-1.2633 -1.000254,-0.41641 -2.491902,-1.26463 -3.314769,-1.88491 -0.822867,-0.62031 -1.908319,-1.74688 -2.412116,-2.50349 -0.503795,-0.75665 -1.096779,-2.07981 -1.31774,-2.9404 -0.289408,-1.12716 -0.360959,-2.09677 -0.255866,-3.46741 0.0859,-1.12025 0.457897,-2.83402 0.904597,-4.16735 0.417295,-1.24555 1.153655,-2.99585 1.636359,-3.88957 0.877642,-1.6249 0.877642,-1.6249 0.231597,-3.92218 -0.355329,-1.26353 -0.755215,-3.06949 -0.888638,-4.01328 -0.13343,-0.94378 -0.246084,-3.4258 -0.250357,-5.5156 -0.0048,-2.36987 -0.130978,-4.26084 -0.335174,-5.02532 -0.180078,-0.67415 -0.556372,-1.66693 -0.836216,-2.206243 -0.279843,-0.53931 -1.344435,-2.13885 -2.365764,-3.55452 -1.021327,-1.41566 -2.454116,-3.73222 -3.183974,-5.14788 -0.729857,-1.41569 -1.782485,-3.89534 -2.339174,-5.51038 -0.556689,-1.61503 -1.278768,-4.26252 -1.604623,-5.8833 -0.325855,-1.6208 -0.722371,-4.43612 -0.881143,-6.25627 -0.158775,-1.82014 -0.226688,-4.57794 -0.150916,-6.12844 0.07577,-1.5505 0.3151,-3.64642 0.531843,-4.65761 0.216737,-1.0112 0.775665,-2.9568 1.242058,-4.32357 0.466392,-1.36677 1.119909,-3.07196 1.452264,-3.78931 0.332351,-0.71735 0.558241,-1.35031 0.50197,-1.40657 -0.05625,-0.0563 -0.529689,0.0687 -1.052044,0.2777 -0.522354,0.20901 -1.79087,0.55375 -2.818922,0.7661 -1.028052,0.21235 -2.878299,0.38609 -4.111662,0.38609 -1.240212,0 -2.903918,-0.1714 -3.722388,-0.38348 -0.813953,-0.21092 -2.87065,-1.08275 -4.570439,-1.9374 -3.090524,-1.55391 -3.090524,-1.55391 -7.265738,-5.80625 -2.296369,-2.338786 -4.609697,-4.895366 -5.140729,-5.681291 -0.965513,-1.428954 -0.965513,-1.428954 -0.359837,-1.89145 0.333121,-0.254374 1.708796,-1.019088 3.057053,-1.699366 2.008495,-1.013408 3.027133,-1.351412 5.638175,-1.870868 2.424094,-0.482261 3.97883,-0.638363 6.496157,-0.65224 1.82015,-0.01005 4.136704,0.124547 5.147897,0.299064 1.011196,0.174511 2.793227,0.628065 3.960065,1.007881 1.166843,0.379811 2.931836,1.098329 3.922208,1.596701 0.990374,0.498373 2.461272,1.354377 3.268663,1.902237 0.807394,0.547856 1.930475,1.422409 2.495738,1.94345 1.02775,0.947348 1.02775,0.947348 2.454223,-1.789903 0.78456,-1.50549 1.932627,-3.525712 2.551264,-4.489386 0.618637,-0.963674 1.942382,-2.524401 2.941656,-3.468282 1.038161,-0.980615 2.552317,-2.099942 3.53283,-2.611615 0.94378,-0.492506 2.31513,-1.071562 3.04743,-1.286792 1.14639,-0.336931 3.15924,-0.391326 14.480752,-0.391326 11.66013,0 13.28587,0.04655 14.35534,0.410948 0.66334,0.22602 1.59306,0.635582 2.06606,0.910137 0.47299,0.274553 1.26022,0.784932 1.7494,1.134173 0.48917,0.349243 1.56211,1.401316 2.38431,2.337942 0.84663,0.964459 2.02892,2.731736 2.72637,4.075293 0.67732,1.304783 1.2322,2.518215 1.2331,2.696518 9.7e-4,0.17829 0.20307,0.629703 0.4493,1.003114 0.44768,0.678931 0.44768,0.678931 1.06099,0.122578 0.33732,-0.305998 1.05087,-0.902455 1.58565,-1.325458 0.53478,-0.423003 1.90433,-1.268368 3.04345,-1.87859 1.13911,-0.610222 2.99524,-1.397471 4.12473,-1.74944 1.1295,-0.351972 3.11849,-0.749221 4.41998,-0.882779 1.52084,-0.156061 3.15195,-0.15996 4.56509,-0.01085 1.20932,0.127562 3.16617,0.459628 4.34856,0.737895 1.18239,0.278265 2.78191,0.841333 3.55449,1.25126 0.77259,0.409927 1.7908,0.986202 2.2627,1.280612 0.47188,0.294411 1.06049,0.721112 1.30798,0.948228 0.43504,0.399211 0.42839,0.451621 -0.19978,1.576826 -0.3574,0.640138 -0.94599,1.55714 -1.30797,2.03778 -0.36201,0.48064 -2.12143,2.529765 -3.90981,4.553609 -3.13113,3.54336 -3.3506,3.73581 -5.92193,5.19331 -1.46866,0.83247 -3.27661,1.68985 -4.01766,1.90527 -0.75877,0.22058 -2.24543,0.3917 -3.4031,0.3917 -1.13066,0 -2.70131,-0.16816 -3.49037,-0.37368 -0.78906,-0.20552 -1.49021,-0.31813 -1.5581,-0.25023 -0.068,0.0679 0.1566,0.76003 0.49891,1.53808 0.34228,0.77805 0.73902,1.80073 0.88163,2.27262 0.14264,0.47189 0.44669,1.57501 0.67573,2.45138 0.22906,0.87637 0.56628,2.25527 0.74942,3.06423 0.18311,0.80895 0.40108,2.84971 0.48437,4.53504 0.0834,1.68532 0.028,4.44312 -0.12268,6.12845 -0.15072,1.68532 -0.56162,4.6086 -0.91305,6.49615 -0.35143,1.88757 -1.02309,4.64538 -1.4926,6.12847 -0.4695,1.48307 -1.23075,3.4981 -1.69163,4.47782 -0.46089,0.97973 -0.83799,1.89413 -0.83799,2.03207 0,0.13787 -0.38608,0.82406 -0.85798,1.52477 -0.47188,0.70072 -0.85799,1.36994 -0.85799,1.48716 0,0.11717 -0.31146,0.61512 -0.69216,1.10639 -0.38068,0.4913 -1.12172,1.72061 -1.64673,2.7318 -0.95459,1.838533 -0.95459,1.838533 -1.11331,7.599283 -0.0873,3.16842 -0.28694,6.31231 -0.44365,6.98644 -0.1567,0.67412 -0.52004,2.03032 -0.80741,3.01375 -0.52247,1.78808 -0.52247,1.78808 0.36039,3.5545 0.48557,0.97154 1.1695,2.76456 1.51986,3.98449 0.35036,1.21993 0.70168,2.9895 0.78073,3.9324 0.0797,0.95104 0.021,2.28667 -0.13198,2.99979 -0.15164,0.70699 -0.60165,1.98269 -1.00008,2.83486 -0.49293,1.05433 -1.16991,1.95657 -2.11861,2.82363 -0.7668,0.70082 -1.95793,1.55989 -2.64695,1.90907 -0.68904,0.34921 -1.94001,0.8842 -2.77997,1.18888 -0.83995,0.30469 -2.54979,0.73485 -3.79964,0.95592 -1.24984,0.2211 -2.76885,0.5764 -3.37558,0.7896 -0.60671,0.2132 -1.54437,0.55372 -2.08366,0.75673 -0.5393,0.20303 -1.64243,0.51633 -2.45139,0.69627 -0.87744,0.19515 -2.90481,0.32135 -5.0253,0.31273 -1.95499,-0.008 -4.27154,-0.15838 -5.14791,-0.33411 z m -3.65516,-6.36999 c 2.07775,-0.19917 4.37192,-0.47496 5.09816,-0.61283 0.72624,-0.13787 1.89704,-0.25068 2.60178,-0.25068 0.70474,0 1.8339,0.10491 2.50928,0.23288 0.67539,0.12802 2.85579,0.40385 4.84535,0.61282 1.98956,0.209 4.5905,0.37998 5.77987,0.37998 1.18936,0 2.74705,-0.123 3.46152,-0.27324 0.71447,-0.15033 1.89889,-0.55416 2.63204,-0.89755 0.73315,-0.34338 1.81727,-1.10861 2.40917,-1.7005 0.59188,-0.59188 1.36052,-1.70477 1.70808,-2.47308 0.46789,-1.03434 0.661,-1.94086 0.74396,-3.49253 0.0616,-1.15258 -0.0179,-2.72115 -0.17654,-3.48574 -0.15871,-0.76455 -0.63286,-2.08294 -1.05365,-2.92971 -0.44856,-0.90272 -1.39225,-2.16966 -2.28126,-3.06269 -1.06028,-1.0651 -2.08873,-1.79867 -3.42013,-2.43952 -1.28899,-0.62045 -2.05199,-1.15777 -2.36244,-1.66371 -0.25218,-0.41099 -0.6813,-1.33861 -0.95359,-2.06138 -0.27229,-0.72274 -0.8826,-2.76351 -1.35624,-4.53505 -0.47363,-1.7715 -1.28777,-5.42719 -1.8092,-8.1237 -0.52143,-2.696513 -1.08241,-5.910023 -1.24663,-7.141133 -0.25848,-1.93771 -0.24211,-2.54567 0.12191,-4.52655 0.23128,-1.25852 0.69082,-3.00637 1.02121,-3.88413 0.33038,-0.87774 0.99819,-2.31562 1.484,-3.19527 0.48583,-0.87966 1.49301,-2.48187 2.2382,-3.56048 0.7452,-1.0786 2.00701,-2.76325 2.80401,-3.74367 0.79703,-0.98041 2.95689,-3.35211 4.7997,-5.27046 1.8428,-1.91835 3.7136,-4.05619 4.15732,-4.75075 0.44372,-0.69457 1.02287,-1.87767 1.28697,-2.62911 0.3372,-0.95938 0.48021,-2.00977 0.48021,-3.52712 0,-1.18847 -0.16455,-2.79261 -0.36567,-3.56474 -0.20112,-0.77214 -0.63108,-1.92764 -0.95545,-2.56778 -0.32438,-0.64014 -1.08654,-1.82414 -1.69368,-2.63111 -0.60715,-0.80698 -1.80882,-2.0386 -2.67039,-2.73694 -0.86157,-0.698344 -2.37962,-1.771036 -3.37343,-2.383763 -0.99382,-0.61273 -2.58882,-1.438559 -3.54444,-1.835176 -0.95563,-0.396618 -2.56485,-0.88994 -3.57604,-1.096272 -1.26434,-0.257982 -3.98222,-0.416545 -8.7024,-0.507704 -3.77512,-0.07292 -8.29791,-0.02878 -10.05065,0.09808 -1.752726,0.126839 -3.997952,0.402065 -4.989372,0.611615 -0.99143,0.209546 -2.64433,0.71804 -3.67311,1.129985 -1.02878,0.411945 -2.795954,1.36476 -3.927056,2.117366 -1.131099,0.752608 -2.691189,1.989379 -3.466864,2.748379 -0.775677,0.759 -1.861585,2.07819 -2.413131,2.93154 -0.551545,0.85335 -1.240109,2.17434 -1.530144,2.93555 -0.337785,0.88653 -0.569955,2.17702 -0.645916,3.59024 -0.08345,1.55233 4.9e-4,2.71323 0.283553,3.91674 0.221177,0.94077 0.673601,2.17372 1.005395,2.73987 0.33179,0.56616 0.879111,1.24636 1.216272,1.51157 0.33716,0.26521 0.613019,0.60559 0.613019,0.75638 0,0.1508 1.399556,1.76764 3.110124,3.59299 1.710566,1.82533 3.881148,4.27841 4.823518,5.45127 0.94237,1.17286 2.30774,3.04282 3.03415,4.15544 0.72641,1.11264 1.80178,3.0431 2.38972,4.28991 0.58794,1.24682 1.25662,2.98397 1.48596,3.86037 0.25516,0.97503 0.41942,2.54469 0.42327,4.04476 0.005,2.08982 -0.23457,3.60842 -1.62665,10.295803 -0.89811,4.31444 -1.96028,8.89238 -2.36039,10.17323 -0.40011,1.28085 -0.9433,2.67792 -1.20709,3.10462 -0.3181,0.51455 -1.14264,1.12075 -2.44852,1.80014 -1.082895,0.56339 -2.488773,1.48195 -3.124168,2.04123 -0.635397,0.55931 -1.580689,1.67511 -2.100649,2.4796 -0.519959,0.80448 -1.176395,2.22326 -1.458748,3.15283 -0.421662,1.38823 -0.492568,2.12207 -0.396936,4.10804 0.100591,2.08872 0.22307,2.63451 0.899835,4.00921 0.46052,0.93544 1.200929,1.94868 1.796423,2.45841 0.557159,0.4769 1.497117,1.10145 2.088797,1.38789 0.591679,0.28641 1.592826,0.66317 2.224766,0.83722 0.63194,0.17405 2.15166,0.32631 3.37714,0.33837 1.22548,0.0121 3.92813,-0.14109 6.005872,-0.34024 z m -8.259772,-9.66598 c -0.55346,-0.25134 -1.24291,-0.71097 -1.53211,-1.02138 -0.2892,-0.31041 -0.525815,-0.86474 -0.525815,-1.23181 0,-0.44213 0.250785,-0.87842 0.743025,-1.2926 0.40866,-0.34388 1.15327,-0.73917 1.65468,-0.8784 0.50141,-0.13928 1.3594,-0.25382 1.90664,-0.25457 0.54724,-7.4e-4 1.1959,0.14551 1.44146,0.32511 0.32457,0.23734 0.44044,0.62752 0.42434,1.42913 -0.0123,0.60646 -0.14452,1.42459 -0.29411,1.81805 -0.14959,0.39345 -0.44687,0.90861 -0.66063,1.1448 -0.23545,0.26017 -0.73598,0.42732 -1.26991,0.42407 -0.4847,-0.004 -1.3341,-0.21105 -1.88757,-0.4624 z m 29.013292,0.20299 c -0.23594,-0.13747 -0.58013,-0.54773 -0.76487,-0.91181 -0.18472,-0.36407 -0.41123,-1.18005 -0.50334,-1.81328 -0.14127,-0.97089 -0.0885,-1.23024 0.33589,-1.65469 0.35042,-0.35041 0.81985,-0.50293 1.54517,-0.50197 0.573,7.3e-4 1.45208,0.11537 1.9535,0.25457 0.5014,0.13927 1.246,0.53452 1.65467,0.8784 0.49241,0.41434 0.74303,0.85045 0.74303,1.29298 0,0.4085 -0.26173,0.91844 -0.67413,1.31345 -0.37077,0.35515 -1.08426,0.81702 -1.58553,1.02641 -0.50127,0.2094 -1.2183,0.37738 -1.5934,0.37328 -0.37509,-0.004 -0.87505,-0.11999 -1.11099,-0.25734 z m -34.25801,8.96717 c 0,-0.0673 -0.05515,-0.12259 -0.122578,-0.12259 -0.06743,0 -0.122578,0.0551 -0.122578,0.12259 0,0.0673 0.05515,0.1226 0.122578,0.1226 0.06741,0 0.122578,-0.0553 0.122578,-0.1226 z m 42.89913,0 c 0,-0.0673 -0.0552,-0.12259 -0.12254,-0.12259 -0.0674,0 -0.12252,0.0551 -0.12252,0.12259 0,0.0673 0.0552,0.1226 0.12252,0.1226 0.0674,0 0.12254,-0.0553 0.12254,-0.1226 z"
       id="path4790" /></g></svg>
